<svg width="0" height="0" class="hidden">
  <symbol fill="none" xmlns="http://www.w3.org/2000/svg" viewBox="0 0 21 20" id="icon-search">
    <path d="M19.8929 18.0083L16.1929 14.3288C17.1929 13.0359 17.8929 11.3453 17.8929 9.45583C17.8929 5.08014 14.2929 1.50003 9.89294 1.50003C5.49294 1.50003 1.89294 5.17959 1.89294 9.55528C1.89294 13.931 5.49294 17.5111 9.89294 17.5111C11.6929 17.5111 13.3929 16.9144 14.7929 15.8205L18.4929 19.5L19.8929 18.0083ZM9.89294 15.5221C6.59294 15.5221 3.89294 12.837 3.89294 9.55528C3.89294 6.27351 6.59294 3.58843 9.89294 3.58843C13.1929 3.58843 15.8929 6.27351 15.8929 9.55528C15.8929 12.837 13.1929 15.5221 9.89294 15.5221Z" fill="currentColor"></path>
  </symbol>

  <symbol fill="none" xmlns="http://www.w3.org/2000/svg" viewBox="0 0 21 20" id="icon-favourites">
    <path d="M10.2929 19C9.99294 19 9.69294 18.9 9.49294 18.6C4.09294 12.5 2.79294 11.1 2.49294 10.7C1.79294 9.80003 1.39294 8.60003 1.39294 7.40003C1.39294 4.40003 3.79294 2.00003 6.89294 2.00003C8.19294 2.00003 9.39294 2.50003 10.3929 3.30003C11.3929 2.50003 12.6929 2.00003 13.8929 2.00003C16.8929 2.00003 19.3929 4.40003 19.3929 7.40003C19.3929 8.70003 18.8929 9.90003 18.0929 10.8L11.0929 18.7C10.8929 18.9 10.6929 19 10.2929 19ZM4.29294 9.50003C4.59294 9.90003 7.79294 13.5 10.3929 16.4L16.5929 9.40003C17.0929 8.90003 17.2929 8.20003 17.2929 7.40003C17.2929 5.60003 15.7929 4.10003 13.9929 4.10003C12.9929 4.10003 11.9929 4.60003 11.2929 5.40003C10.9929 5.70003 10.6929 5.80003 10.3929 5.80003C10.0929 5.80003 9.79294 5.60003 9.59294 5.40003C8.89294 4.60003 7.89294 4.10003 6.89294 4.10003C5.09294 4.10003 3.59294 5.60003 3.59294 7.40003C3.49294 8.30003 3.89294 9.00003 4.29294 9.50003C4.19294 9.50003 4.19294 9.50003 4.29294 9.50003Z" fill="currentColor"></path>
  </symbol>

  <symbol fill="none" xmlns="http://www.w3.org/2000/svg" viewBox="0 0 21 20" id="icon-arrow-down">
    <g>
      <path fill-rule="evenodd" clip-rule="evenodd" d="M4.61261 7.3447C4.90551 7.05181 5.38038 7.05181 5.67327 7.3447L10.3929 12.0644L15.1126 7.3447C15.4055 7.05181 15.8804 7.05181 16.1733 7.3447C16.4662 7.63759 16.4662 8.11247 16.1733 8.40536L10.9233 13.6554C10.6304 13.9483 10.1555 13.9483 9.86261 13.6554L4.61261 8.40536C4.31972 8.11247 4.31972 7.63759 4.61261 7.3447Z" fill="currentColor"></path>
    </g>
  </symbol>

  <symbol fill="none" xmlns="http://www.w3.org/2000/svg" viewBox="0 0 7 10" id="icon-arrow-right">
    <path d="M6.11167 4.46872L1.36167 0.218719C1.11167 -0.0312805 0.611674 -0.0312805 0.236674 0.218719C-0.138326 0.468719 -0.0133261 0.968719 0.236674 1.21872L4.36167 4.96872L0.361674 8.71872C0.111674 8.96872 0.111674 9.46872 0.361674 9.71872C0.361674 9.84372 0.736674 9.96872 0.861674 9.96872C0.986674 9.96872 1.23667 9.84372 1.36167 9.71872L6.11167 5.46872C6.48667 5.21872 6.48667 4.71872 6.11167 4.46872Z" fill="currentColor"></path>
  </symbol>

  <symbol fill="currentColor" xmlns="http://www.w3.org/2000/svg" viewBox="0 0 16 15" id="icon-calendar">
    <g>
      <path d="M5.75 10C6.05 10 6.25 9.8 6.25 9.5C6.25 9.2 6.05 9 5.75 9C5.45 9 5.25 9.2 5.25 9.5C5.25 9.8 5.45 10 5.75 10Z" fill="currentColor"></path>
      <path d="M15 2H13V0H12V2H4V0H3V2H1C0.4 2 0 2.4 0 3V14C0 14.5 0.4 15 1 15H15C15.5 15 16 14.5 16 14V3C16 2.4 15.5 2 15 2ZM15 14H1V7H15V14ZM1 6V3H3V5H4V3H12V5H13V3H15V6H1Z" fill="currentColor"></path>
      <path d="M8 10C8.3 10 8.5 9.8 8.5 9.5C8.5 9.2 8.3 9 8 9C7.7 9 7.5 9.2 7.5 9.5C7.5 9.8 7.7 10 8 10Z" fill="currentColor"></path>
      <path d="M10.25 10C10.55 10 10.75 9.8 10.75 9.5C10.75 9.2 10.55 9 10.25 9C9.95 9 9.75 9.2 9.75 9.5C9.75 9.8 9.95 10 10.25 10Z" fill="currentColor"></path>
      <path d="M5.75 11C5.45 11 5.25 11.2 5.25 11.5C5.25 11.8 5.45 12 5.75 12C6.05 12 6.25 11.8 6.25 11.5C6.25 11.2 6.05 11 5.75 11Z" fill="currentColor"></path>
      <path d="M3.5 10C3.8 10 4 9.8 4 9.5C4 9.2 3.8 9 3.5 9C3.2 9 3 9.2 3 9.5C3 9.8 3.2 10 3.5 10Z" fill="currentColor"></path>
      <path d="M3.5 11C3.2 11 3 11.2 3 11.5C3 11.8 3.2 12 3.5 12C3.8 12 4 11.8 4 11.5C4 11.2 3.8 11 3.5 11Z" fill="currentColor"></path>
      <path d="M8 11C7.7 11 7.5 11.2 7.5 11.5C7.5 11.8 7.7 12 8 12C8.3 12 8.5 11.8 8.5 11.5C8.5 11.2 8.3 11 8 11Z" fill="currentColor"></path>
      <path d="M10.25 11C9.95 11 9.75 11.2 9.75 11.5C9.75 11.8 9.95 12 10.25 12C10.55 12 10.75 11.8 10.75 11.5C10.75 11.2 10.55 11 10.25 11Z" fill="currentColor"></path>
      <path d="M12.5 10C12.8 10 13 9.8 13 9.5C13 9.2 12.8 9 12.5 9C12.2 9 12 9.2 12 9.5C12 9.8 12.2 10 12.5 10Z" fill="currentColor"></path>
      <path d="M12.5 11C12.2 11 12 11.2 12 11.5C12 11.8 12.2 12 12.5 12C12.8 12 13 11.8 13 11.5C13 11.2 12.8 11 12.5 11Z" fill="currentColor"></path>
    </g>
  </symbol>

  <symbol fill="currentColor" xmlns="http://www.w3.org/2000/svg" viewBox="0 0 15 15" id="icon-close">
    <path d="M14.4906 1.78279L13.1983 0.490479L7.4906 6.19817L1.78291 0.490479L0.490601 1.78279L6.19829 7.49048L0.490601 13.1982L1.78291 14.4905L7.4906 8.78279L13.1983 14.4905L14.4906 13.1982L8.78291 7.49048L14.4906 1.78279Z" fill="currentColor"></path>
  </symbol>

  <symbol fill="currentColor" xmlns="http://www.w3.org/2000/svg" viewBox="0 0 20 20" id="icon-check">
    <path d="M15 5L8.5 12.4L5.1 8.5L4 9.7L8.5 14.9L16.2 6.3L15 5Z" fill="currentColor"></path>
  </symbol>

  <symbol fill="none" xmlns="http://www.w3.org/2000/svg" viewBox="0 0 20 20" id="icon-cards">
    <path d="M6 3H2V9H6V3Z" fill="currentColor"></path>
    <path d="M18 3H14V9H18V3Z" fill="currentColor"></path>
    <path d="M12 3H8V9H12V3Z" fill="currentColor"></path>
    <path d="M6 11H2V17H6V11Z" fill="currentColor"></path>
    <path d="M18 11H14V17H18V11Z" fill="currentColor"></path>
    <path d="M12 11H8V17H12V11Z" fill="currentColor"></path>
  </symbol>

  <symbol fill="none" xmlns="http://www.w3.org/2000/svg" viewBox="0 0 20 20" id="icon-list">
    <path d="M4 3H2V5H4V3Z" fill="currentColor"></path>
    <path d="M18 3H6V5H18V3Z" fill="currentColor"></path>
    <path d="M4 7H2V9H4V7Z" fill="currentColor"></path>
    <path d="M18 7H6V9H18V7Z" fill="currentColor"></path>
    <path d="M4 11H2V13H4V11Z" fill="currentColor"></path>
    <path d="M18 11H6V13H18V11Z" fill="currentColor"></path>
    <path d="M4 15H2V17H4V15Z" fill="currentColor"></path>
    <path d="M18 15H6V17H18V15Z" fill="currentColor"></path>
  </symbol>

  <symbol fill="none" xmlns="http://www.w3.org/2000/svg" viewBox="0 0 20 20" id="icon-block">
    <path d="M18 15H2V17H18V15Z" fill="currentColor"></path>
    <path d="M16 5V11H4V5H16ZM18 3H2V13H18V3Z" fill="currentColor"></path>
  </symbol>

  <symbol fill="currentColor" xmlns="http://www.w3.org/2000/svg" viewBox="0 0 17 16" id="icon-delete">
    <g>
      <path d="M15.6929 2.30003H0.992944C0.692944 2.30003 0.392944 2.50003 0.392944 2.80003C0.392944 3.10003 0.692944 3.40003 0.992944 3.40003H2.69294V15.4C2.69294 15.7 2.99294 16 3.29294 16H13.4929C13.7929 16 14.0929 15.7 14.0929 15.4V3.40003H15.7929C16.0929 3.40003 16.3929 3.10003 16.3929 2.80003C16.3929 2.50003 15.9929 2.30003 15.6929 2.30003ZM12.8929 14.8H3.79294V3.40003H12.8929V14.8Z" fill="currentColor"></path>
      <path d="M6.59294 1.20003H9.99294C10.2929 1.20003 10.5929 0.900031 10.5929 0.600031C10.5929 0.300031 10.3929 3.05176e-05 10.0929 3.05176e-05H6.59294C6.29294 3.05176e-05 6.09294 0.300031 6.09294 0.600031C6.09294 0.900031 6.29294 1.20003 6.59294 1.20003Z" fill="currentColor"></path>
      <path d="M6.59294 12C6.89294 12 7.19294 11.7 7.19294 11.4V5.70003C7.19294 5.40003 6.89294 5.10003 6.59294 5.10003C6.29294 5.10003 5.99294 5.40003 5.99294 5.70003V11.4C6.09294 11.7 6.29294 12 6.59294 12Z" fill="currentColor"></path>
      <path d="M10.0929 12C10.3929 12 10.6929 11.7 10.6929 11.4V5.70003C10.6929 5.40003 10.3929 5.10003 10.0929 5.10003C9.79294 5.10003 9.49294 5.50003 9.49294 5.70003V11.4C9.49294 11.7 9.69294 12 10.0929 12Z" fill="currentColor"></path>
    </g>
  </symbol>



  <symbol fill="currentColor" xmlns="http://www.w3.org/2000/svg" viewBox="0 0 13 12" id="icon-home">
    <g>
      <path d="M6.39294 0L0.392944 5.80006V12.0001H12.3929V5.80006L6.39294 0ZM11.3929 11.0001H1.39294V6.20005L6.39294 1.4L11.3929 6.20005V11.0001Z" fill="currentColor"></path>
      <path d="M4.39294 10.0001H5.39294V7.50005H7.39294V10.0001H8.39294V6.50005H4.39294V10.0001Z" fill="currentColor"></path>
    </g>
  </symbol>



  <symbol fill="none" xmlns="http://www.w3.org/2000/svg" viewBox="0 0 21 20" id="icon-info">
    <path fill-rule="evenodd" clip-rule="evenodd" d="M9.39294 4.00003H11.3929V6.00003H9.39294V4.00003ZM11.3929 16H9.39294V7.00003H11.3929V16Z" fill="currentColor"></path>
  </symbol>

  <symbol fill="none" xmlns="http://www.w3.org/2000/svg" viewBox="0 0 21 20" id="icon-minus">
    <path d="M3.39294 9.00003V11H17.3929V9.00003H3.39294Z" fill="currentColor"></path>
  </symbol>

  <symbol fill="none" xmlns="http://www.w3.org/2000/svg" viewBox="0 0 20 20" id="icon-plus">
    <path d="M17 9H11V3H9V9H3V11H9V17H11V11H17V9Z" fill="currentColor"></path>
  </symbol>

  <symbol fill="currentColor" xmlns="http://www.w3.org/2000/svg" viewBox="0 0 19 17" id="icon-star">
    <path d="M9.39294 3.05176e-05L11.4929 6.50003H18.3929L12.7929 10.5L14.9929 17L9.39294 13L3.79294 17L5.99294 10.5L0.392944 6.50003H7.29294L9.39294 3.05176e-05Z" fill="currentColor"></path>
  </symbol>
</svg>
