<svg width="0" height="0" class="hidden">
  <symbol xmlns="http://www.w3.org/2000/svg" fill="none" viewBox="0 0 18 16" id="icon-telegram">
    <path fill="currentColor" d="M16.79.96.84 7.1c-1.09.44-1.08 1.05-.2 1.32l4.1 1.28 9.47-5.98c.44-.27.85-.13.52.17l-7.68 6.93-.28 4.22c.41 0 .6-.2.83-.41l1.99-1.94 4.13 3.06c.77.42 1.31.2 1.5-.71l2.72-12.8c.28-1.1-.43-1.61-1.16-1.28Z"></path>
  </symbol>

  <symbol xmlns="http://www.w3.org/2000/svg" fill="none" viewBox="0 0 25 15" id="icon-vk">
    <path fill="currentColor" fill-rule="evenodd" d="M24.12 1.8c.16-.54 0-.94-.8-.94H20.7c-.67 0-.98.34-1.15.73 0 0-1.33 3.2-3.22 5.27-.61.6-.9.8-1.23.8-.16 0-.41-.2-.41-.75v-5.1c0-.66-.19-.95-.74-.95H9.82c-.42 0-.67.3-.67.59 0 .62.95.76 1.04 2.51v3.8c0 .83-.15.98-.48.98-.9 0-3.06-3.2-4.34-6.88-.25-.72-.5-1-1.18-1H1.57c-.75 0-.9.34-.9.73 0 .68.89 4.07 4.14 8.55 2.17 3.06 5.23 4.72 8 4.72 1.68 0 1.88-.37 1.88-1v-2.32c0-.74.16-.88.7-.88.38 0 1.05.19 2.6 1.66 1.79 1.75 2.08 2.54 3.08 2.54h2.63c.75 0 1.12-.37.9-1.1-.23-.72-1.08-1.77-2.2-3.02-.62-.71-1.54-1.48-1.82-1.86-.39-.5-.28-.71 0-1.15 0 0 3.2-4.42 3.54-5.93Z" clip-rule="evenodd"></path>
  </symbol>

  <symbol xmlns="http://www.w3.org/2000/svg" fill="none" viewBox="0 0 23 18" id="icon-youtube">
    <path fill="currentColor" d="M18.94.36H3.51C1.65.36.33 1.95.33 3.76v10.09c0 1.91 1.32 3.5 3.18 3.5h15.65c1.64 0 3.17-1.59 3.17-3.4V3.76c-.22-1.8-1.53-3.4-3.39-3.4ZM8 12.89V4.82l7.33 4.04L8 12.89Z"></path>
  </symbol>
</svg>
