<svg width="17" height="16" viewBox="0 0 17 16" fill="none" xmlns="http://www.w3.org/2000/svg">
<g id="Vector">
<path d="M15.6929 2.30003H0.992944C0.692944 2.30003 0.392944 2.50003 0.392944 2.80003C0.392944 3.10003 0.692944 3.40003 0.992944 3.40003H2.69294V15.4C2.69294 15.7 2.99294 16 3.29294 16H13.4929C13.7929 16 14.0929 15.7 14.0929 15.4V3.40003H15.7929C16.0929 3.40003 16.3929 3.10003 16.3929 2.80003C16.3929 2.50003 15.9929 2.30003 15.6929 2.30003ZM12.8929 14.8H3.79294V3.40003H12.8929V14.8Z" fill="black"/>
<path d="M6.59294 1.20003H9.99294C10.2929 1.20003 10.5929 0.900031 10.5929 0.600031C10.5929 0.300031 10.3929 3.05176e-05 10.0929 3.05176e-05H6.59294C6.29294 3.05176e-05 6.09294 0.300031 6.09294 0.600031C6.09294 0.900031 6.29294 1.20003 6.59294 1.20003Z" fill="black"/>
<path d="M6.59294 12C6.89294 12 7.19294 11.7 7.19294 11.4V5.70003C7.19294 5.40003 6.89294 5.10003 6.59294 5.10003C6.29294 5.10003 5.99294 5.40003 5.99294 5.70003V11.4C6.09294 11.7 6.29294 12 6.59294 12Z" fill="black"/>
<path d="M10.0929 12C10.3929 12 10.6929 11.7 10.6929 11.4V5.70003C10.6929 5.40003 10.3929 5.10003 10.0929 5.10003C9.79294 5.10003 9.49294 5.50003 9.49294 5.70003V11.4C9.49294 11.7 9.69294 12 10.0929 12Z" fill="black"/>
</g>
</svg>
