<svg width="21" height="20" viewBox="0 0 21 20" fill="none" xmlns="http://www.w3.org/2000/svg">
<path d="M10.2929 19C9.99294 19 9.69294 18.9 9.49294 18.6C4.09294 12.5 2.79294 11.1 2.49294 10.7C1.79294 9.80003 1.39294 8.60003 1.39294 7.40003C1.39294 4.40003 3.79294 2.00003 6.89294 2.00003C8.19294 2.00003 9.39294 2.50003 10.3929 3.30003C11.3929 2.50003 12.6929 2.00003 13.8929 2.00003C16.8929 2.00003 19.3929 4.40003 19.3929 7.40003C19.3929 8.70003 18.8929 9.90003 18.0929 10.8L11.0929 18.7C10.8929 18.9 10.6929 19 10.2929 19ZM4.29294 9.50003C4.59294 9.90003 7.79294 13.5 10.3929 16.4L16.5929 9.40003C17.0929 8.90003 17.2929 8.20003 17.2929 7.40003C17.2929 5.60003 15.7929 4.10003 13.9929 4.10003C12.9929 4.10003 11.9929 4.60003 11.2929 5.40003C10.9929 5.70003 10.6929 5.80003 10.3929 5.80003C10.0929 5.80003 9.79294 5.60003 9.59294 5.40003C8.89294 4.60003 7.89294 4.10003 6.89294 4.10003C5.09294 4.10003 3.59294 5.60003 3.59294 7.40003C3.49294 8.30003 3.89294 9.00003 4.29294 9.50003C4.19294 9.50003 4.19294 9.50003 4.29294 9.50003Z" fill="black"/>
</svg>
