<svg width="21" height="20" viewBox="0 0 21 20" fill="none" xmlns="http://www.w3.org/2000/svg">
<path d="M19.8929 18.0083L16.1929 14.3288C17.1929 13.0359 17.8929 11.3453 17.8929 9.45583C17.8929 5.08014 14.2929 1.50003 9.89294 1.50003C5.49294 1.50003 1.89294 5.17959 1.89294 9.55528C1.89294 13.931 5.49294 17.5111 9.89294 17.5111C11.6929 17.5111 13.3929 16.9144 14.7929 15.8205L18.4929 19.5L19.8929 18.0083ZM9.89294 15.5221C6.59294 15.5221 3.89294 12.837 3.89294 9.55528C3.89294 6.27351 6.59294 3.58843 9.89294 3.58843C13.1929 3.58843 15.8929 6.27351 15.8929 9.55528C15.8929 12.837 13.1929 15.5221 9.89294 15.5221Z" fill="black"/>
</svg>
